<svg width="512" height="512" viewBox="0 0 512 512" fill="none" xmlns="http://www.w3.org/2000/svg">
<g filter="url(#filter0_d_63_3)">
<path fill-rule="evenodd" clip-rule="evenodd" d="M433.719 183.113C441.22 188.125 449.766 191.396 458.72 192.684C464.563 193.519 469.991 196.156 474.233 200.221C478.476 204.285 481.317 209.569 482.353 215.323C484.908 228.698 486.192 242.28 486.189 255.892C485.999 268.797 484.664 281.66 482.2 294.334C481.181 300.217 478.297 305.627 473.965 309.78C469.633 313.932 464.079 316.611 458.106 317.429C448.896 318.518 440.067 321.713 432.317 326.76C424.568 331.807 418.109 338.568 413.451 346.51C408.792 354.453 406.063 363.358 405.476 372.524C404.89 381.69 406.464 390.865 410.074 399.326C412.295 404.851 412.689 410.931 411.2 416.691C409.711 422.452 406.415 427.597 401.787 431.386C383.361 446.583 362.65 458.835 340.403 467.7C334.619 469.992 328.232 470.326 322.237 468.65C316.241 466.973 310.974 463.381 307.256 458.432C301.665 450.993 294.398 444.948 286.033 440.781C277.667 436.613 268.434 434.436 259.069 434.425C249.404 434.402 239.879 436.715 231.321 441.163C222.764 445.612 215.432 452.061 209.962 459.951C207.362 463.605 203.914 466.587 199.909 468.65C195.904 470.712 191.458 471.793 186.943 471.803C183.651 471.762 180.387 471.198 177.276 470.131C152.946 461.276 130.319 448.379 110.367 431.994C105.521 428.125 102.119 422.765 100.701 416.764C99.2834 410.763 99.9308 404.465 102.541 398.87C106.529 390.268 108.378 380.846 107.933 371.391C107.488 361.937 104.763 352.725 99.9846 344.528C95.2063 336.33 88.5143 329.385 80.4687 324.274C72.4232 319.163 63.2581 316.034 53.7406 315.15C47.5369 314.491 41.725 311.827 37.2035 307.57C32.6821 303.313 29.703 297.7 28.7267 291.599C26.7652 279.796 25.79 267.853 25.811 255.892C25.811 241.605 27.2504 227.353 30.1079 213.348C31.2567 207.436 34.2923 202.045 38.7678 197.97C43.2432 193.894 48.9221 191.349 54.9683 190.709C64.2812 189.855 73.2624 186.851 81.1914 181.94C89.1203 177.029 95.7764 170.346 100.626 162.427C105.475 154.509 108.382 145.575 109.115 136.343C109.847 127.112 108.384 117.838 104.843 109.267C102.641 103.639 102.318 97.4604 103.919 91.6367C105.521 85.813 108.964 80.6499 113.743 76.9035C132.705 62.0143 153.945 50.217 176.662 41.9567C182.264 39.8961 188.381 39.6387 194.139 41.221C199.898 42.8034 205.006 46.1449 208.735 50.7694C214.347 57.875 221.52 63.622 229.709 67.5744C237.899 71.5269 246.89 73.581 256 73.581C265.111 73.581 274.102 71.5269 282.291 67.5744C290.481 63.622 297.653 57.875 303.266 50.7694C306.995 46.1449 312.102 42.8034 317.861 41.221C323.62 39.6387 329.736 39.8961 335.339 41.9567C359.942 50.9038 382.789 64.0137 402.861 80.7021C407.407 84.4165 410.666 89.4465 412.179 95.0869C413.693 100.727 413.386 106.695 411.301 112.154C408.022 120.504 406.687 129.479 407.397 138.411C408.106 147.342 410.841 156 415.399 163.74C419.956 171.48 426.219 178.102 433.719 183.113Z" fill="url(#paint0_radial_63_3)"/>
</g>
<g filter="url(#filter1_d_63_3)">
<path d="M220.759 261.428C220.759 263.161 216.692 264.561 208.559 265.628C200.425 266.695 192.292 267.228 184.159 267.228C176.025 267.228 170.825 266.761 168.559 265.828C166.292 264.895 165.159 263.428 165.159 261.428V132.828C165.159 126.428 184.359 123.228 222.759 123.228C245.959 123.228 261.292 124.828 268.759 128.028C277.825 131.761 283.959 136.828 287.159 143.228C291.425 151.495 293.559 162.095 293.559 175.028C293.559 192.761 290.492 205.628 284.359 213.628C279.959 219.495 275.559 223.295 271.159 225.028C266.759 226.761 263.092 228.028 260.159 228.828C257.359 229.495 253.825 230.028 249.559 230.428C243.692 230.961 235.692 231.228 225.559 231.228L220.759 231.028V261.428ZM220.959 197.828H225.759C228.292 197.828 230.292 197.495 231.759 196.828C233.225 196.028 234.492 194.028 235.559 190.828C236.759 187.495 237.359 182.895 237.359 177.028C237.359 171.028 236.692 166.495 235.359 163.428C234.159 160.228 232.892 158.361 231.559 157.828C230.359 157.161 228.892 156.828 227.159 156.828H220.959V197.828Z" fill="white"/>
</g>
<g filter="url(#filter2_d_63_3)">
<path d="M338.557 384.324C338.557 385.791 334.423 386.991 326.157 387.924C318.023 388.724 309.823 389.124 301.557 389.124C293.423 389.124 288.223 388.791 285.957 388.124C283.823 387.324 282.757 386.058 282.757 384.324V298.324H254.957C253.49 298.324 252.223 296.458 251.157 292.724C250.09 288.991 249.557 283.458 249.557 276.124C249.557 268.658 250.357 261.991 251.957 256.124C253.557 250.124 255.69 247.124 258.357 247.124H366.557C368.557 247.124 369.89 248.991 370.557 252.724C371.357 256.458 371.757 261.858 371.757 268.924C371.757 275.991 371.023 282.658 369.557 288.924C368.09 295.191 366.09 298.324 363.557 298.324H338.557V384.324Z" fill="white"/>
</g>
<defs>
<filter id="filter0_d_63_3" x="12.8107" y="31.1974" width="486.379" height="457.605" filterUnits="userSpaceOnUse" color-interpolation-filters="sRGB">
<feFlood flood-opacity="0" result="BackgroundImageFix"/>
<feColorMatrix in="SourceAlpha" type="matrix" values="0 0 0 0 0 0 0 0 0 0 0 0 0 0 0 0 0 0 127 0" result="hardAlpha"/>
<feOffset dy="4"/>
<feGaussianBlur stdDeviation="6.5"/>
<feComposite in2="hardAlpha" operator="out"/>
<feColorMatrix type="matrix" values="0 0 0 0 0 0 0 0 0 0 0 0 0 0 0 0 0 0 0.4 0"/>
<feBlend mode="normal" in2="BackgroundImageFix" result="effect1_dropShadow_63_3"/>
<feBlend mode="normal" in="SourceGraphic" in2="effect1_dropShadow_63_3" result="shape"/>
</filter>
<filter id="filter1_d_63_3" x="161.159" y="123.228" width="136.4" height="152" filterUnits="userSpaceOnUse" color-interpolation-filters="sRGB">
<feFlood flood-opacity="0" result="BackgroundImageFix"/>
<feColorMatrix in="SourceAlpha" type="matrix" values="0 0 0 0 0 0 0 0 0 0 0 0 0 0 0 0 0 0 127 0" result="hardAlpha"/>
<feOffset dy="4"/>
<feGaussianBlur stdDeviation="2"/>
<feComposite in2="hardAlpha" operator="out"/>
<feColorMatrix type="matrix" values="0 0 0 0 0 0 0 0 0 0 0 0 0 0 0 0 0 0 0.25 0"/>
<feBlend mode="normal" in2="BackgroundImageFix" result="effect1_dropShadow_63_3"/>
<feBlend mode="normal" in="SourceGraphic" in2="effect1_dropShadow_63_3" result="shape"/>
</filter>
<filter id="filter2_d_63_3" x="245.557" y="247.124" width="130.2" height="150" filterUnits="userSpaceOnUse" color-interpolation-filters="sRGB">
<feFlood flood-opacity="0" result="BackgroundImageFix"/>
<feColorMatrix in="SourceAlpha" type="matrix" values="0 0 0 0 0 0 0 0 0 0 0 0 0 0 0 0 0 0 127 0" result="hardAlpha"/>
<feOffset dy="4"/>
<feGaussianBlur stdDeviation="2"/>
<feComposite in2="hardAlpha" operator="out"/>
<feColorMatrix type="matrix" values="0 0 0 0 0 0 0 0 0 0 0 0 0 0 0 0 0 0 0.25 0"/>
<feBlend mode="normal" in2="BackgroundImageFix" result="effect1_dropShadow_63_3"/>
<feBlend mode="normal" in="SourceGraphic" in2="effect1_dropShadow_63_3" result="shape"/>
</filter>
<radialGradient id="paint0_radial_63_3" cx="0" cy="0" r="1" gradientUnits="userSpaceOnUse" gradientTransform="translate(256 256) rotate(90) scale(215.803 230.189)">
<stop offset="0.458333" stop-color="#93E0EB"/>
<stop offset="1" stop-color="#214999"/>
</radialGradient>
</defs>
</svg>
